# xmcd
#
# Track frame offsets:
#	150
#	20942
#	41705
#	57120
#	71942
#	87367
#	109420
#	127800
#	147685
#	166175
#	183245
#	202435
#	214727
#
# Disc length: 3154 seconds
#
# Revision: 3
# Processed by: cddbd v1.5.2PL0 Copyright (c) Steve Scherf et al.
# Submitted via: EasyCDDAExtractor 15.3.0.1
#
DISCID=d00c500d
DTITLE=Alexandre Pires - Alma Brasilera
DYEAR=2004
DGENRE=Latin
TTITLE0=Esa Tal Libertad
TTITLE1=Amor Perfecto
TTITLE2=Pais Tropical
TTITLE3=Cosa Del Destino
TTITLE4=Por Usted
TTITLE5=Aguanta Corazon
TTITLE6=Dulce Obsesion
TTITLE7=Un Dia De Domingo
TTITLE8=Bye, Bye Tristeza
TTITLE9=Usted Abuso
TTITLE10=Regresa A Mi
TTITLE11=Es Parte De Mi Show
TTITLE12=Alma Brasilera (Manha De Carnaval, Garota De Ipanema, Mas Que Nada)
EXTD=YEAR: 2004
EXTT0=
EXTT1=
EXTT2=
EXTT3=
EXTT4=
EXTT5=
EXTT6=
EXTT7=
EXTT8=
EXTT9=
EXTT10=
EXTT11=
EXTT12=
PLAYORDER=
